<?xml version="1.0" standalone="no"?>
<!DOCTYPE svg PUBLIC "-//W3C//DTD SVG 20010904//EN"
 "http://www.w3.org/TR/2001/REC-SVG-20010904/DTD/svg10.dtd">
<svg version="1.0" xmlns="http://www.w3.org/2000/svg"
 width="16.000000pt" height="16.000000pt" viewBox="0 0 16.000000 16.000000"
 preserveAspectRatio="xMidYMid meet">
<metadata>
Created by potrace 1.11, written by Peter Selinger 2001-2013
</metadata>
<g transform="translate(0.000000,16.000000) scale(0.001250,-0.001250)"
fill="#000000" stroke="none">
<path d="M1811 8665 c-1 -1935 2 -2445 12 -2446 82 -4 130 -2 135 5 3 5 5
1073 5 2373 l0 2363 4609 0 4608 0 0 -3344 0 -3345 75 0 75 0 0 3420 0 3419
-4760 0 -4759 0 0 -2445z"/>
<path d="M703 5712 c-196 -39 -310 -171 -305 -352 5 -161 94 -263 347 -395
226 -119 302 -183 326 -278 26 -105 -5 -190 -90 -248 -61 -40 -110 -52 -211
-53 -139 0 -265 54 -382 166 -27 25 -48 43 -49 41 -4 -16 -1 -173 4 -188 4
-11 35 -39 69 -62 118 -79 240 -112 395 -108 152 5 261 50 346 145 78 87 106
198 81 318 -33 159 -123 251 -379 387 -214 113 -278 168 -290 246 -11 74 6
128 55 176 62 61 212 84 315 48 43 -15 151 -76 165 -94 3 -3 12 -12 22 -19 15
-12 16 -5 16 78 l1 91 -52 33 c-119 75 -242 97 -384 68z"/>
<path d="M3200 5718 c-290 -32 -520 -220 -617 -503 -24 -72 -27 -95 -27 -225
-1 -164 14 -238 70 -351 88 -176 230 -301 415 -364 88 -30 106 -34 224 -39
354 -18 660 205 751 546 23 84 27 264 9 349 -44 205 -154 368 -323 476 -142
92 -323 132 -502 111z m188 -152 c29 -4 69 -13 88 -21 19 -8 34 -12 34 -9 0 2
28 -10 62 -28 85 -45 194 -155 235 -239 50 -102 70 -189 67 -299 -1 -52 -5
-106 -8 -120 -34 -145 -103 -259 -206 -341 -98 -78 -203 -117 -334 -124 -164
-9 -320 46 -439 154 -77 70 -157 228 -172 340 -7 47 -7 169 0 201 2 14 7 39
11 55 9 45 44 124 80 180 85 135 245 235 402 251 31 4 58 8 60 9 4 3 15 2 120
-9z"/>
<path d="M1420 5622 l0 -77 195 2 195 3 0 -645 0 -644 80 0 c44 0 80 3 81 7 0
4 0 293 1 643 l0 636 190 0 c121 0 192 4 197 11 5 8 6 47 2 123 -1 15 -46 16
-471 17 l-470 0 0 -76z"/>
<path d="M4424 4981 l1 -716 78 -2 c42 -2 78 1 78 5 1 4 2 156 3 337 l1 330
265 1 265 1 3 76 3 76 -260 -1 c-143 0 -264 2 -268 5 -6 4 -10 388 -4 443 1 9
80 12 286 12 157 0 288 2 291 4 5 5 7 64 5 119 l-1 27 -374 -1 -374 0 2 -716z"/>
<path d="M5564 4981 l1 -716 80 0 80 0 0 335 0 335 250 2 c138 1 258 2 268 2
15 1 17 12 17 75 l0 74 -259 0 c-143 0 -263 2 -268 5 -4 3 -8 106 -8 229 l1
223 287 1 c159 1 291 5 294 8 4 3 6 22 6 41 -1 19 -2 50 -2 69 l-1 34 -374 0
-373 0 1 -717z"/>
<path d="M6704 4982 l1 -717 412 -1 411 -1 -1 75 -2 75 -327 -1 c-181 0 -329
3 -329 6 -1 4 -2 123 -3 264 -1 167 2 259 9 261 5 2 142 3 303 2 160 0 292 2
293 5 1 3 2 35 3 73 2 49 -1 67 -11 68 -7 1 -145 2 -305 3 l-293 1 0 218 c0
121 2 223 5 227 3 5 148 8 323 7 204 -1 318 2 320 8 3 9 2 91 -2 129 -1 12
-66 14 -405 14 l-404 0 2 -716z"/>
<path d="M7930 4981 l0 -718 375 0 c272 -1 375 3 376 11 3 39 0 128 -4 133 -3
3 -136 5 -296 6 l-289 0 0 641 0 641 -81 2 -81 2 0 -718z"/>
<path d="M9198 3775 c-2 -2 -24 -6 -50 -9 -228 -28 -399 -232 -399 -477 0 -49
2 -93 5 -97 3 -5 7 -20 10 -34 2 -14 18 -54 35 -89 94 -195 328 -301 547 -248
71 17 172 68 180 91 9 30 1 30 -36 3 -129 -95 -351 -101 -498 -12 -278 166
-284 592 -12 767 93 60 233 86 345 65 42 -9 146 -54 180 -80 19 -13 21 -13 22
5 3 37 -134 99 -237 107 -36 2 -70 6 -77 8 -6 2 -13 2 -15 0z"/>
<path d="M4485 3295 c0 -417 2 -475 15 -475 13 0 15 53 15 430 0 322 3 426 11
417 11 -12 430 -571 549 -732 32 -44 68 -90 80 -102 l20 -23 0 473 c0 412 -2
472 -15 475 -13 2 -15 -50 -15 -427 0 -236 -3 -428 -6 -425 -3 2 -48 61 -99
131 -51 70 -96 130 -99 133 -4 3 -31 39 -61 80 -30 41 -59 80 -65 87 -5 6 -80
106 -165 222 -85 116 -157 210 -160 211 -3 0 -5 -214 -5 -475z"/>
<path d="M8207 3764 c-3 -5 -73 -180 -157 -389 -84 -209 -158 -393 -165 -410
-34 -81 -55 -139 -51 -143 15 -14 36 17 70 104 69 174 68 174 96 175 122 4
445 -2 450 -8 4 -4 31 -68 60 -140 32 -82 58 -133 66 -133 18 0 18 19 0 56 -8
16 -87 211 -176 434 -180 452 -185 466 -193 454z m38 -154 c38 -86 185 -460
185 -470 0 -5 -99 -9 -220 -8 -121 0 -220 1 -220 3 0 3 175 444 212 535 7 18
12 21 15 10 2 -8 15 -40 28 -70z"/>
<path d="M4119 3758 c-6 -16 -2 -931 4 -935 5 -3 11 -2 14 1 3 3 6 213 6 468
0 339 -3 463 -12 466 -6 2 -12 2 -12 0z"/>
<path d="M5430 3745 c0 -13 23 -15 145 -15 143 0 145 0 146 -22 0 -13 1 -218
1 -455 1 -358 3 -433 14 -433 17 0 15 -47 16 478 l0 432 148 0 c124 0 147 2
147 15 0 13 -41 15 -309 15 -267 0 -308 -2 -308 -15z"/>
<path d="M6302 3290 l0 -470 254 0 c221 0 253 2 248 15 -5 13 -41 15 -239 15
l-233 0 0 225 0 225 56 1 c31 0 128 0 214 0 142 0 184 6 165 25 -2 3 -101 5
-220 6 l-215 1 0 198 -1 199 228 0 c194 0 230 2 235 15 5 13 -26 15 -243 15
l-249 0 0 -470z"/>
<path d="M7091 3291 c0 -404 2 -471 15 -471 17 0 16 -18 16 221 l1 197 144 0
143 1 24 -37 c12 -20 49 -86 81 -147 102 -194 126 -235 141 -235 8 0 14 3 14
6 0 7 -76 150 -162 307 -33 60 -57 111 -54 115 4 3 13 7 21 8 18 3 74 42 98
69 44 48 61 98 60 176 0 65 -4 84 -27 123 -32 56 -58 81 -111 109 -36 19 -59
22 -222 25 l-183 4 1 -471z m405 404 c30 -19 60 -49 78 -79 53 -86 37 -218
-36 -282 -64 -57 -73 -59 -249 -62 l-166 -4 0 232 0 232 162 -4 c160 -3 162
-3 211 -33z"/>
<path d="M9720 3745 c0 -12 25 -15 148 -17 l147 -3 0 -453 c0 -397 2 -452 15
-450 13 3 15 61 16 448 1 245 2 448 3 453 0 4 66 7 146 7 122 0 145 2 145 15
0 13 -41 15 -310 15 -266 0 -310 -2 -310 -15z"/>
<path d="M10603 3290 c0 -389 2 -470 13 -470 12 0 14 81 14 470 0 390 -2 470
-14 470 -11 0 -13 -80 -13 -470z"/>
<path d="M10900 3751 c0 -5 25 -73 56 -152 30 -79 81 -214 113 -299 56 -148
165 -433 181 -475 10 -24 -13 -78 201 484 93 244 167 446 165 449 -18 17 -48
-52 -191 -432 -88 -234 -163 -426 -166 -426 -4 0 -9 8 -12 18 -3 9 -16 46 -30
82 -13 36 -64 169 -112 295 -48 127 -103 271 -122 320 -19 50 -39 102 -45 118
-9 25 -38 39 -38 18z"/>
<path d="M11884 3293 l1 -468 249 0 c191 0 250 3 254 13 3 9 -49 12 -237 12
l-241 0 1 225 2 225 26 1 c14 0 113 1 219 1 155 1 192 3 192 14 0 16 0 16
-250 16 l-186 -1 -1 200 -2 199 235 0 c184 0 235 3 232 13 -4 9 -65 13 -250
15 l-245 2 1 -467z"/>
<path d="M1811 2641 l0 -1049 4759 0 4760 0 0 349 0 349 -75 0 -75 0 0 -274 0
-273 -4607 1 -4608 1 -2 955 c-1 525 -2 963 -2 973 -1 15 -12 17 -76 17 l-74
0 0 -1049z"/>
</g>
</svg>
