<svg id="Ebene_1" data-name="Ebene 1" xmlns="http://www.w3.org/2000/svg" viewBox="0 0 1204.74 951.64"><title>logo_stoffelinteractive_white</title><path d="M33.74,679.79c11.71,14,27.32,22,43.54,22,21.57,0,31-12.53,31-22.59,0-17.46-10.27-23.42-31.84-34.71C55.92,633.78,39.69,624.33,39.69,603c0-20.54,16-35.12,42.52-35.12,11.3,0,23.21,4.31,31.43,11.71v17.87c-10.06-10.06-21.16-14.79-31.22-14.79-16.84,0-26.7,8.22-26.7,20.33,0,12.94,10.68,18.9,27.73,27.73,23.62,12.12,40.87,23.42,40.87,48.47,0,18.9-17,37.38-45.8,37.38-18.69,0-33.89-6.57-44.78-17Z" transform="translate(-33.74 -29.07)" fill="#fff"/><path d="M181,585.31H142V570.52h94.07v14.79H197V713.68H181Z" transform="translate(-33.74 -29.07)" fill="#fff"/><path d="M329.31,567.85c41.29,0,74.56,31.43,74.56,74.35s-33.27,74.35-74.56,74.35-74.56-31.43-74.56-74.35S288,567.85,329.31,567.85Zm0,133.92c33.69,0,58.54-25.47,58.54-59.57S363,582.64,329.31,582.64s-58.74,25.47-58.74,59.57S295.62,701.77,329.31,701.77Z" transform="translate(-33.74 -29.07)" fill="#fff"/><path d="M442.48,570.52h74.77v14.79H458.5v46.21h53.61v14.79H458.5v67.37h-16Z" transform="translate(-33.74 -29.07)" fill="#fff"/><path d="M556.48,570.52h74.77v14.79H572.5v46.21h53.61v14.79H572.5v67.37h-16Z" transform="translate(-33.74 -29.07)" fill="#fff"/><path d="M670.47,570.52H751.4v14.79H686.49V630.7h61v14.79h-61v53.4h66.34v14.79H670.47Z" transform="translate(-33.74 -29.07)" fill="#fff"/><path d="M793.3,570.52h16V698.89h58.95v14.79h-75Z" transform="translate(-33.74 -29.07)" fill="#fff"/><polyline points="1091.71 882.04 1091.71 944.14 155.07 944.14 155.07 742.09" fill="none" stroke="#fff" stroke-miterlimit="10" stroke-width="15"/><path d="M1125.45,911.11" transform="translate(-33.74 -29.07)" fill="none" stroke="#000" stroke-miterlimit="10" stroke-width="3"/><path d="M1125.45,712.68" transform="translate(-33.74 -29.07)" fill="none" stroke="#000" stroke-miterlimit="10" stroke-width="3"/><polyline points="155.07 488.94 155.07 7.5 1091.71 7.5 1091.71 683.61" fill="none" stroke="#fff" stroke-miterlimit="10" stroke-width="15"/><path d="M411.37,764.16h2.82v93.7h-2.82Z" transform="translate(-33.74 -29.07)" fill="#fff"/><path d="M448.74,762.54,514.61,851V764.16h2.82v95.31L451.56,771v86.84h-2.82Z" transform="translate(-33.74 -29.07)" fill="#fff"/><path d="M572.41,766.85H543.1v-2.69h61.43v2.69H575.23v91h-2.82Z" transform="translate(-33.74 -29.07)" fill="#fff"/><path d="M630.34,764.16h49.07v2.69H633.17v40.06h43.69v2.69H633.17v45.57h47.18v2.69h-50Z" transform="translate(-33.74 -29.07)" fill="#fff"/><path d="M709.52,764.16h27.69c14.92,0,26.62,10.89,26.62,25.94,0,12.23-7.53,22-19.36,25.14l23.12,42.61h-3.23l-22.72-41.94a53.87,53.87,0,0,1-6.72.27H712.34v41.67h-2.82Zm27.56,49.33c13.71,0,23.93-9.95,23.93-23.39,0-13.17-10.22-23.26-23.79-23.26H712.34v46.65Z" transform="translate(-33.74 -29.07)" fill="#fff"/><path d="M821.09,762.54l38.31,95.31h-3.09l-11.43-28.36H797.3l-11.43,28.36h-3.09Zm22.72,64.26-22.72-56.73L798.37,826.8Z" transform="translate(-33.74 -29.07)" fill="#fff"/><path d="M923,762.81a49.44,49.44,0,0,1,29.71,9.68v3.36A46.6,46.6,0,0,0,923,765.5c-25.95,0-45.44,19.63-45.44,45.57S897,856.51,923,856.51a46.6,46.6,0,0,0,29.71-10.35v3.36A49.43,49.43,0,0,1,923,859.2c-27.29,0-48.4-20.7-48.4-48.13S895.7,762.81,923,762.81Z" transform="translate(-33.74 -29.07)" fill="#fff"/><path d="M1001.63,766.85H972.32v-2.69h61.43v2.69h-29.31v91h-2.82Z" transform="translate(-33.74 -29.07)" fill="#fff"/><path d="M1060.1,764.16h2.82v93.7h-2.82Z" transform="translate(-33.74 -29.07)" fill="#fff"/><path d="M1089.67,764.16h3.09l33.2,87.65,33.2-87.65h3.09L1126,859.47Z" transform="translate(-33.74 -29.07)" fill="#fff"/><path d="M1188.47,764.16h49.07v2.69h-46.24v40.06H1235v2.69h-43.69v45.57h47.18v2.69h-50Z" transform="translate(-33.74 -29.07)" fill="#fff"/></svg>